<svg xmlns="http://www.w3.org/2000/svg" version="1.1" xmlns:xlink="http://www.w3.org/1999/xlink" xmlns:svgjs="http://svgjs.dev/svgjs" width="1500" height="1500" viewBox="0 0 1500 1500"><g transform="matrix(1,0,0,1,-0.21332335329316265,-0.21332335329350371)"><svg viewBox="0 0 334 334" data-background-color="#000000" preserveAspectRatio="xMidYMid meet" height="1500" width="1500" xmlns="http://www.w3.org/2000/svg" xmlns:xlink="http://www.w3.org/1999/xlink"><g id="tight-bounds" transform="matrix(1,0,0,1,0.04749999999998522,0.04750000000001364)"><svg viewBox="0 0 333.90454557049503 333.90454557049503" height="333.90454557049503" width="333.90454557049503"><rect width="333.905" height="333.905" fill="url(#3e68a165-7b12-4f27-9876-eb7fd7e20894)" mask="url(#1106a130-b1a0-4a6d-b991-d766fd9e67ff)" data-fill-palette-color="tertiary"></rect><g><svg></svg></g><g><svg viewBox="0 0 333.90454557049503 333.90454557049503" height="333.90454557049503" width="333.90454557049503"><g><path d="M0 166.952c0-92.205 74.747-166.952 166.952-166.952 92.205 0 166.952 74.747 166.953 166.952 0 92.205-74.747 166.952-166.953 166.953-92.205 0-166.952-74.747-166.952-166.953zM166.952 316.63c82.665 0 149.677-67.013 149.678-149.678 0-82.665-67.013-149.677-149.678-149.677-82.665 0-149.677 67.013-149.677 149.677 0 82.665 67.013 149.677 149.677 149.678z" data-fill-palette-color="tertiary" fill="url(#3e68a165-7b12-4f27-9876-eb7fd7e20894)" stroke="transparent"></path><ellipse rx="160.27418187383762" ry="160.27418187383762" cx="166.95227278524752" cy="166.95227278524752" fill="url(#3e68a165-7b12-4f27-9876-eb7fd7e20894)" stroke="transparent" stroke-width="0" fill-opacity="1" data-fill-palette-color="tertiary"></ellipse></g><g transform="matrix(1,0,0,1,117.02735404041968,71.17305217166896)"><svg viewBox="0 0 99.84983748965566 191.55844122715712" height="191.55844122715712" width="99.84983748965566"><g><svg viewBox="0 0 99.84983748965566 191.55844122715712" height="191.55844122715712" width="99.84983748965566"><g><svg viewBox="0 0 99.84983748965566 191.55844122715712" height="191.55844122715712" width="99.84983748965566"><g><svg viewBox="0 0 99.84983748965566 191.55844122715712" height="191.55844122715712" width="99.84983748965566"><g id="textblocktransform"><svg viewBox="0 0 99.84983748965566 191.55844122715712" height="191.55844122715712" width="99.84983748965566" id="textblock"><g><svg viewBox="0 0 99.84983748965566 191.55844122715712" height="191.55844122715712" width="99.84983748965566"><g transform="matrix(1,0,0,1,0,0)"><svg width="99.84983748965566" viewBox="2.1 -39.95 20.849999999999998 40" height="191.55844122715712" data-palette-color="#000000"><path d="M22.95-37.55L22.95-8Q22.95-3.95 20.25-1.95L20.25-1.95Q18.95-1 17.57-0.48 16.2 0.05 14.9 0.05L14.9 0.05 10.1 0.05Q8.8 0.05 7.43-0.48 6.05-1 4.75-1.95L4.75-1.95Q2.1-3.9 2.1-8L2.1-8 2.1-11.3Q2.1-13.65 5-13.65L5-13.65Q8-13.65 8-11.3L8-11.3 8-8.4Q8-7.1 8.75-6.05 9.5-5 11.35-5L11.35-5 13.65-5Q15.5-5 16.25-6.05 17-7.1 17-8.4L17-8.4 17-37.55Q17-39.95 19.95-39.95L19.95-39.95Q22.95-39.95 22.95-37.55L22.95-37.55Z" opacity="1" transform="matrix(1,0,0,1,0,0)" fill="#000000" class="wordmark-text-0" data-fill-palette-color="quaternary" id="text-0"></path></svg></g></svg></g></svg></g></svg></g><g></g></svg></g></svg></g></svg></g></svg></g><defs></defs><mask id="1106a130-b1a0-4a6d-b991-d766fd9e67ff"><g id="SvgjsG5288"><svg viewBox="0 0 333.90454557049503 333.90454557049503" height="333.90454557049503" width="333.90454557049503"><g><svg></svg></g><g><svg viewBox="0 0 333.90454557049503 333.90454557049503" height="333.90454557049503" width="333.90454557049503"><g><path d="M0 166.952c0-92.205 74.747-166.952 166.952-166.952 92.205 0 166.952 74.747 166.953 166.952 0 92.205-74.747 166.952-166.953 166.953-92.205 0-166.952-74.747-166.952-166.953zM166.952 316.63c82.665 0 149.677-67.013 149.678-149.678 0-82.665-67.013-149.677-149.678-149.677-82.665 0-149.677 67.013-149.677 149.677 0 82.665 67.013 149.677 149.677 149.678z" fill="white" stroke="transparent"></path><ellipse rx="160.27418187383762" ry="160.27418187383762" cx="166.95227278524752" cy="166.95227278524752" fill="white" stroke="transparent" stroke-width="0" fill-opacity="1"></ellipse></g><g transform="matrix(1,0,0,1,117.02735404041968,71.17305217166896)"><svg viewBox="0 0 99.84983748965566 191.55844122715712" height="191.55844122715712" width="99.84983748965566"><g><svg viewBox="0 0 99.84983748965566 191.55844122715712" height="191.55844122715712" width="99.84983748965566"><g><svg viewBox="0 0 99.84983748965566 191.55844122715712" height="191.55844122715712" width="99.84983748965566"><g><svg viewBox="0 0 99.84983748965566 191.55844122715712" height="191.55844122715712" width="99.84983748965566"><g id="SvgjsG5287"><svg viewBox="0 0 99.84983748965566 191.55844122715712" height="191.55844122715712" width="99.84983748965566" id="SvgjsSvg5286"><g><svg viewBox="0 0 99.84983748965566 191.55844122715712" height="191.55844122715712" width="99.84983748965566"><g transform="matrix(1,0,0,1,0,0)"><svg width="99.84983748965566" viewBox="2.1 -39.95 20.849999999999998 40" height="191.55844122715712" data-palette-color="#000000"><path d="M22.95-37.55L22.95-8Q22.95-3.95 20.25-1.95L20.25-1.95Q18.95-1 17.57-0.48 16.2 0.05 14.9 0.05L14.9 0.05 10.1 0.05Q8.8 0.05 7.43-0.48 6.05-1 4.75-1.95L4.75-1.95Q2.1-3.9 2.1-8L2.1-8 2.1-11.3Q2.1-13.65 5-13.65L5-13.65Q8-13.65 8-11.3L8-11.3 8-8.4Q8-7.1 8.75-6.05 9.5-5 11.35-5L11.35-5 13.65-5Q15.5-5 16.25-6.05 17-7.1 17-8.4L17-8.4 17-37.55Q17-39.95 19.95-39.95L19.95-39.95Q22.95-39.95 22.95-37.55L22.95-37.55Z" opacity="1" transform="matrix(1,0,0,1,0,0)" fill="black" class="wordmark-text-0" id="SvgjsPath5285"></path></svg></g></svg></g></svg></g></svg></g><g></g></svg></g></svg></g></svg></g></svg></g><defs><mask></mask></defs></svg><rect width="333.90454557049503" height="333.90454557049503" fill="black" stroke="none" visibility="hidden"></rect></g></mask><linearGradient x1="0.054" x2="0.941" y1="0.5" y2="0.5" id="3e68a165-7b12-4f27-9876-eb7fd7e20894"><stop stop-color="#0f3054" offset="0"></stop><stop stop-color="#3b8dcb" offset="0.498"></stop><stop stop-color="#0f3054" offset="1"></stop></linearGradient></svg><rect width="333.90454557049503" height="333.90454557049503" fill="none" stroke="none" visibility="hidden"></rect></g></svg></g></svg>